# xmcd
#
# Track frame offsets:
#	150
#	9687
#	19867
#	31755
#	41650
#	51677
#	60655
#	72000
#	84305
#	97202
#	107675
#	118247
#
# Disc length: 1767 seconds
#
# Revision: 4
# Processed by: cddbd v1.5.2PL0 Copyright (c) Steve Scherf et al.
# Submitted via: EasyCDDAExtractor 11.1.0.1
#
DISCID=a206e50c
DTITLE=Frank Ifield - Best Of Frank Ifield
DYEAR=1991
DGENRE=Country
TTITLE0=I Remember You
TTITLE1=Long Gone Lonesome Blues
TTITLE2=Then You Can Tell Me Goodbye
TTITLE3=Singing The Blues
TTITLE4=Gonna Find Me A Bluebird
TTITLE5=Call Her Your Sweetheart
TTITLE6=No One Will Ever Know
TTITLE7=Good Morning Dear
TTITLE8=Oh Such A Stranger
TTITLE9=Lovesick Blues
TTITLE10=I Love You Because
TTITLE11=So Sad (To Watch Good Love Go Bad)
EXTD=YEAR: 1991
EXTT0=
EXTT1=
EXTT2=
EXTT3=
EXTT4=
EXTT5=
EXTT6=
EXTT7=
EXTT8=
EXTT9=
EXTT10=
EXTT11=
PLAYORDER=
